<svg width="435" height="161" viewBox="0 0 435 161" fill="none" stroke="#8f8f8f"
  xmlns="http://www.w3.org/2000/svg">
  <path
    d="M54.7502 154.625C53.9397 148.884 52.2428 143.534 50.3752 138.028C44.7014 121.302 37.6438 105.251 28.3266 90.2155C22.2861 80.4675 15.5934 70.1003 6.27797 63.2363C5.87655 62.9405 7.17628 62.7699 7.66686 62.6807C14.3677 61.4624 20.9313 60.2418 27.771 59.903C43.3635 59.1306 59.2359 59.9124 74.6807 62.1946C86.656 63.9642 101.167 66.6927 109.472 76.5696C121.778 91.2034 98.0578 94.6179 88.3266 96.0141C80.3114 97.1641 72.2019 97.7315 64.1252 98.2363C63.3439 98.2851 47.406 98.0314 46.9724 99.278C46.8498 99.6305 47.5964 99.6991 47.9446 99.8335C50.5078 100.823 56.0429 102.178 57.8405 102.646C77.457 107.757 97.1569 112.608 116.556 118.514C126.321 121.487 135.932 124.816 145.306 128.861C147.476 129.798 149.433 130.558 151 132.125"
    stroke-width="12" stroke-linecap="round" />
  <path
    d="M122.25 65.2499C119.541 57.1214 111.519 50.8654 106.486 44.1388C105.378 42.657 103.736 40.9972 106.417 41.4999C109.841 42.142 113.251 42.8313 116.695 43.3749C136.389 46.4846 156.395 48.5747 176.278 49.9722C185.461 50.6176 194.646 50.7953 203.848 50.8749C204.65 50.8819 210.016 50.269 210.723 51.6388C211.602 53.3436 204.489 59.263 204.264 59.486C191.389 72.274 177.961 84.4856 164.681 96.8472C155.287 105.592 145.816 114.282 137.181 123.792C135.362 125.794 133.674 128.05 131.625 129.833C131.61 129.846 129.054 131.612 129.681 131.847C131.133 132.392 132.786 131.94 134.334 131.847C140.425 131.482 146.508 130.994 152.598 130.597C181.814 128.693 211.088 127.125 240.375 127.125"
    stroke-width="12" stroke-linecap="round" />
  <path
    d="M210.375 45.875C221.076 71.259 227.339 98.2795 236.868 124.104C240.208 133.156 243.887 146.262 251 153.375"
    stroke-width="12" stroke-linecap="round" />
  <path
    d="M214.125 102.75C216.898 99.3609 227.73 97.6987 231.174 96.6739C245.464 92.4209 259.969 88.9493 274.75 86.917C275.378 86.8306 278.544 87.0697 278.5 85.7364C278.333 80.7281 275.036 75.0114 273.361 70.4587C270.638 63.0555 268.042 55.6244 265.792 48.0628C264.668 44.2889 263.358 40.108 264.993 47.1948C268.142 60.8398 273.232 74.2594 278.153 87.3337C283.767 102.251 290.089 116.167 298.5 129.625"
    stroke-width="12" stroke-linecap="round" />
  <path
    d="M276 32.125C279.134 36.7758 281.241 41.8822 283.222 47.125C290.054 65.2054 295.115 83.8835 300.931 102.299C304.915 114.915 308.938 127.414 315.375 139"
    stroke-width="12" stroke-linecap="round" />
  <path
    d="M346.625 72.1255C346.925 58.92 345.514 46.3398 342.007 33.5492C341.362 31.199 340.246 25.282 338.291 23.0978C337.931 22.6954 337.616 23.9704 337.458 24.4867C336.512 27.5754 336.682 27.5296 335.444 31.0144C329.13 48.786 318.911 63.355 306.278 77.1603C304.85 78.7202 301.772 81.3361 301.069 83.6186C300.926 84.0833 301.03 84.526 300.653 84.9033C299.987 85.569 310.776 85.8249 311.833 85.8755C319.04 86.2208 326.249 86.4602 333.465 86.3964C365.037 86.117 320.55 86.3534 347.84 86.0144C349.262 85.9968 353.086 85.5749 354.68 86.9519C356.336 88.3817 355.784 92.7971 356 94.6255C356.695 100.518 358.622 105.724 361.278 111.014C364.995 118.421 369.386 125.356 374.125 132.126"
    stroke-width="12" stroke-linecap="round" />
  <path
    d="M320.375 6.5C327.786 12.3511 334.53 20.0446 340.722 27.0556C357.822 46.416 371.671 67.8092 384.125 90.3889C392.756 106.038 400.178 122.342 409.125 137.819C410.219 139.713 413.851 147.641 416.625 148.861C416.995 149.024 417.073 148.152 417.111 147.75C417.25 146.288 417.25 142.279 417.25 141.292C417.25 121.65 416.895 102.037 417.875 82.4028C419.15 56.8653 421.92 31.8007 428.5 7.125"
    stroke-width="12" stroke-linecap="round" />
</svg>